<?xml version="1.0" standalone="no"?>
<!DOCTYPE svg PUBLIC "-//W3C//DTD SVG 20010904//EN"
 "http://www.w3.org/TR/2001/REC-SVG-20010904/DTD/svg10.dtd">
<svg version="1.0" xmlns="http://www.w3.org/2000/svg"
 width="260.000000pt" height="260.000000pt" viewBox="0 0 260.000000 260.000000"
 preserveAspectRatio="xMidYMid meet">
<metadata>
Created by potrace 1.11, written by Peter Selinger 2001-2013
</metadata>
<g transform="translate(0.000000,260.000000) scale(0.100000,-0.100000)"
fill="#000000" stroke="none">
<path d="M825 2482 c-188 -91 -238 -430 -103 -709 39 -81 129 -174 192 -198
54 -21 129 -16 173 11 204 126 211 574 13 806 -79 92 -193 129 -275 90z"/>
<path d="M1702 2445 c-116 -36 -222 -166 -284 -350 -27 -79 -31 -104 -32 -205
0 -85 4 -128 17 -166 58 -169 185 -231 325 -160 61 31 147 123 189 201 97 183
116 405 48 550 -31 66 -63 100 -116 125 -51 23 -87 24 -147 5z"/>
<path d="M275 1793 c-137 -38 -208 -236 -156 -436 78 -300 353 -474 513 -325
183 170 83 593 -173 733 -48 26 -141 40 -184 28z"/>
<path d="M2137 1620 c-172 -66 -306 -284 -308 -501 -2 -186 113 -315 260 -295
70 10 131 44 201 115 76 77 123 159 150 267 45 176 3 337 -106 405 -49 30
-132 34 -197 9z"/>
<path d="M1165 1261 c-69 -25 -100 -42 -175 -96 -308 -225 -581 -710 -500
-891 35 -80 143 -134 272 -137 94 -2 167 9 343 53 219 56 224 55 410 -15 85
-33 112 -39 180 -39 98 -1 148 21 228 97 68 65 77 87 72 179 -10 214 -221 561
-457 751 -127 102 -262 138 -373 98z"/>
</g>
</svg>
